<svg xmlns="http://www.w3.org/2000/svg" width="1340" height="1339" viewBox="0 0 1340 1339" version="1.1"><path d="M 946 392.707 C 937.788 394.134, 928.612 397.338, 904.500 407.195 C 862.992 424.166, 786.368 455.960, 758 467.985 C 743.975 473.930, 667.475 505.583, 588 538.324 C 508.525 571.065, 404.350 613.988, 356.500 633.707 C 300.559 656.760, 266.557 671.312, 261.257 674.467 C 251.932 680.017, 243.832 687.449, 240.949 693.099 C 237.948 698.983, 238.315 706.547, 241.870 712.054 C 248.016 721.575, 248.288 721.708, 289.500 735.336 C 341.451 752.516, 379.870 764.430, 391.311 766.908 C 416.541 772.375, 443.560 771.263, 460.343 764.068 C 463.006 762.926, 502.831 736.628, 548.843 705.627 C 772.997 554.601, 758.080 564.487, 774.721 555.937 C 784.955 550.679, 795.349 547, 799.970 547 C 801.488 547, 803.970 547.975, 805.485 549.167 C 807.997 551.143, 808.189 551.757, 807.668 556.155 C 806.963 562.108, 802.224 571.809, 795.934 580.172 C 786.265 593.030, 683.061 692.638, 603 766.384 C 590.625 777.782, 578.849 789.117, 576.831 791.571 C 564.745 806.272, 564.665 822.826, 576.609 837.175 C 587.314 850.035, 632.151 882.504, 715.500 937.754 C 742.450 955.618, 771.778 975.108, 780.674 981.065 C 814.712 1003.856, 847.509 1016.405, 868.479 1014.659 C 878.088 1013.859, 888.254 1008.804, 894.498 1001.721 C 899.906 995.586, 906.378 982.979, 908.471 974.500 C 911.598 961.833, 976.678 548.732, 986.926 476.500 C 993.316 431.454, 993.518 419.558, 988.079 408.509 C 984.182 400.594, 979.476 396.554, 971.145 393.970 C 965.105 392.098, 953.003 391.490, 946 392.707" stroke="none" fill="#fbfbfb" fill-rule="evenodd"/><path d="M 643 2.595 C 620.188 4.119, 606.319 5.346, 592.500 7.062 C 424.031 27.979, 270.470 111.630, 162.134 241.500 C 61.871 361.691, 7.019 512.865, 7.019 669 C 7.019 891.490, 117.989 1099.184, 303.171 1223.285 C 490.107 1348.563, 728.987 1370.877, 935.805 1282.381 C 1014.821 1248.571, 1084.849 1201.204, 1145.527 1140.527 C 1245.015 1041.039, 1309.746 914.467, 1332.466 775 C 1338.308 739.133, 1339.245 726.644, 1339.735 678 C 1340.029 648.909, 1339.785 627.271, 1339.060 618 C 1319.623 369.637, 1164.554 153.305, 936 55.703 C 871.288 28.068, 802.962 10.908, 732 4.469 C 715.648 2.985, 655.970 1.729, 643 2.595 M 946 392.707 C 937.788 394.134, 928.612 397.338, 904.500 407.195 C 862.992 424.166, 786.368 455.960, 758 467.985 C 743.975 473.930, 667.475 505.583, 588 538.324 C 508.525 571.065, 404.350 613.988, 356.500 633.707 C 300.559 656.760, 266.557 671.312, 261.257 674.467 C 251.932 680.017, 243.832 687.449, 240.949 693.099 C 237.948 698.983, 238.315 706.547, 241.870 712.054 C 248.016 721.575, 248.288 721.708, 289.500 735.336 C 341.451 752.516, 379.870 764.430, 391.311 766.908 C 416.541 772.375, 443.560 771.263, 460.343 764.068 C 463.006 762.926, 502.831 736.628, 548.843 705.627 C 772.997 554.601, 758.080 564.487, 774.721 555.937 C 784.955 550.679, 795.349 547, 799.970 547 C 801.488 547, 803.970 547.975, 805.485 549.167 C 807.997 551.143, 808.189 551.757, 807.668 556.155 C 806.963 562.108, 802.224 571.809, 795.934 580.172 C 786.265 593.030, 683.061 692.638, 603 766.384 C 590.625 777.782, 578.849 789.117, 576.831 791.571 C 564.745 806.272, 564.665 822.826, 576.609 837.175 C 587.314 850.035, 632.151 882.504, 715.500 937.754 C 742.450 955.618, 771.778 975.108, 780.674 981.065 C 814.712 1003.856, 847.509 1016.405, 868.479 1014.659 C 878.088 1013.859, 888.254 1008.804, 894.498 1001.721 C 899.906 995.586, 906.378 982.979, 908.471 974.500 C 911.598 961.833, 976.678 548.732, 986.926 476.500 C 993.316 431.454, 993.518 419.558, 988.079 408.509 C 984.182 400.594, 979.476 396.554, 971.145 393.970 C 965.105 392.098, 953.003 391.490, 946 392.707" stroke="none" fill="#28a0d5" fill-rule="evenodd"/></svg>