<svg xmlns="http://www.w3.org/2000/svg" width="3000" height="2000" viewBox="0 0 3000 2000" version="1.1"><path d="M 1772 723.707 C 1763.788 725.134, 1754.612 728.338, 1730.500 738.195 C 1688.992 755.166, 1612.368 786.960, 1584 798.985 C 1569.975 804.930, 1493.475 836.583, 1414 869.324 C 1334.525 902.065, 1230.350 944.988, 1182.500 964.707 C 1126.559 987.760, 1092.557 1002.312, 1087.257 1005.467 C 1077.932 1011.017, 1069.832 1018.449, 1066.949 1024.099 C 1063.948 1029.983, 1064.315 1037.547, 1067.870 1043.054 C 1074.016 1052.575, 1074.288 1052.708, 1115.500 1066.336 C 1167.451 1083.516, 1205.870 1095.430, 1217.311 1097.908 C 1242.541 1103.375, 1269.560 1102.263, 1286.343 1095.068 C 1289.006 1093.926, 1328.831 1067.628, 1374.843 1036.627 C 1598.997 885.601, 1584.080 895.487, 1600.721 886.937 C 1610.955 881.679, 1621.349 878, 1625.970 878 C 1627.488 878, 1629.970 878.975, 1631.485 880.167 C 1633.997 882.143, 1634.189 882.757, 1633.668 887.155 C 1632.963 893.108, 1628.224 902.809, 1621.934 911.172 C 1612.265 924.030, 1509.061 1023.638, 1429 1097.384 C 1416.625 1108.782, 1404.849 1120.117, 1402.831 1122.571 C 1390.745 1137.272, 1390.665 1153.826, 1402.609 1168.175 C 1413.314 1181.035, 1458.151 1213.504, 1541.500 1268.754 C 1568.450 1286.618, 1597.778 1306.108, 1606.674 1312.065 C 1640.712 1334.856, 1673.509 1347.405, 1694.479 1345.659 C 1704.088 1344.859, 1714.254 1339.804, 1720.498 1332.721 C 1725.906 1326.586, 1732.378 1313.979, 1734.471 1305.500 C 1737.598 1292.833, 1802.678 879.732, 1812.926 807.500 C 1819.316 762.454, 1819.518 750.558, 1814.079 739.509 C 1810.182 731.594, 1805.476 727.554, 1797.145 724.970 C 1791.105 723.098, 1779.003 722.490, 1772 723.707" stroke="none" fill="#fbfbfb" fill-rule="evenodd"/><path d="M 1469 333.595 C 1446.188 335.119, 1432.319 336.346, 1418.500 338.062 C 1250.031 358.979, 1096.470 442.630, 988.134 572.500 C 887.871 692.691, 833.019 843.865, 833.019 1000 C 833.019 1222.490, 943.989 1430.184, 1129.171 1554.285 C 1304.996 1672.116, 1527.236 1699.278, 1726.500 1627.289 C 1852.172 1581.887, 1961.483 1499.653, 2040.003 1391.443 C 2155.582 1232.160, 2194.769 1029.252, 2146.926 837.799 C 2096.475 635.911, 1953.666 468.553, 1762 386.703 C 1697.288 359.068, 1628.962 341.908, 1558 335.469 C 1541.648 333.985, 1481.970 332.729, 1469 333.595 M 1772 723.707 C 1763.788 725.134, 1754.612 728.338, 1730.500 738.195 C 1688.992 755.166, 1612.368 786.960, 1584 798.985 C 1569.975 804.930, 1493.475 836.583, 1414 869.324 C 1334.525 902.065, 1230.350 944.988, 1182.500 964.707 C 1126.559 987.760, 1092.557 1002.312, 1087.257 1005.467 C 1077.932 1011.017, 1069.832 1018.449, 1066.949 1024.099 C 1063.948 1029.983, 1064.315 1037.547, 1067.870 1043.054 C 1074.016 1052.575, 1074.288 1052.708, 1115.500 1066.336 C 1167.451 1083.516, 1205.870 1095.430, 1217.311 1097.908 C 1242.541 1103.375, 1269.560 1102.263, 1286.343 1095.068 C 1289.006 1093.926, 1328.831 1067.628, 1374.843 1036.627 C 1598.997 885.601, 1584.080 895.487, 1600.721 886.937 C 1610.955 881.679, 1621.349 878, 1625.970 878 C 1627.488 878, 1629.970 878.975, 1631.485 880.167 C 1633.997 882.143, 1634.189 882.757, 1633.668 887.155 C 1632.963 893.108, 1628.224 902.809, 1621.934 911.172 C 1612.265 924.030, 1509.061 1023.638, 1429 1097.384 C 1416.625 1108.782, 1404.849 1120.117, 1402.831 1122.571 C 1390.745 1137.272, 1390.665 1153.826, 1402.609 1168.175 C 1413.314 1181.035, 1458.151 1213.504, 1541.500 1268.754 C 1568.450 1286.618, 1597.778 1306.108, 1606.674 1312.065 C 1640.712 1334.856, 1673.509 1347.405, 1694.479 1345.659 C 1704.088 1344.859, 1714.254 1339.804, 1720.498 1332.721 C 1725.906 1326.586, 1732.378 1313.979, 1734.471 1305.500 C 1737.598 1292.833, 1802.678 879.732, 1812.926 807.500 C 1819.316 762.454, 1819.518 750.558, 1814.079 739.509 C 1810.182 731.594, 1805.476 727.554, 1797.145 724.970 C 1791.105 723.098, 1779.003 722.490, 1772 723.707" stroke="none" fill="#28a0d5" fill-rule="evenodd"/></svg>